<?xml version="1.0" encoding="utf-8"?>
<!-- Generator: Adobe Illustrator 25.0.0, SVG Export Plug-In . SVG Version: 6.00 Build 0)  -->
<svg version="1.1" id="Calque_1" xmlns="http://www.w3.org/2000/svg" xmlns:xlink="http://www.w3.org/1999/xlink" x="0px" y="0px"
	 viewBox="0 0 680 130" style="enable-background:new 0 0 680 130;" xml:space="preserve">
<style type="text/css">
	.st0{fill:url(#SVGID_1_);}
	.st1{fill:url(#SVGID_2_);}
	.st2{fill:url(#SVGID_3_);}
	.st3{fill:url(#SVGID_4_);}
	.st4{fill:url(#SVGID_5_);}
	.st5{fill:url(#SVGID_6_);}
	.st6{fill:#231F20;}
	.st7{fill:url(#SVGID_7_);}
	.st8{fill:url(#SVGID_8_);}
</style>
<g>
	<g>
		<linearGradient id="SVGID_1_" gradientUnits="userSpaceOnUse" x1="158.5168" y1="62.9422" x2="489.6604" y2="60.7958">
			<stop  offset="5.376350e-03" style="stop-color:#8BC53F"/>
			<stop  offset="0.2437" style="stop-color:#56B241"/>
			<stop  offset="0.4837" style="stop-color:#28A143"/>
			<stop  offset="0.6685" style="stop-color:#0B9745"/>
			<stop  offset="0.7742" style="stop-color:#009345"/>
		</linearGradient>
		<path class="st0" d="M203.04,39.23v47.12h-10.9V67.04h-21.4v19.32h-10.9V39.23h10.9v18.58h21.4V39.23H203.04z"/>
		<linearGradient id="SVGID_2_" gradientUnits="userSpaceOnUse" x1="158.5221" y1="63.624" x2="489.6631" y2="61.4777">
			<stop  offset="5.376350e-03" style="stop-color:#8BC53F"/>
			<stop  offset="0.2437" style="stop-color:#56B241"/>
			<stop  offset="0.4837" style="stop-color:#28A143"/>
			<stop  offset="0.6685" style="stop-color:#0B9745"/>
			<stop  offset="0.7742" style="stop-color:#009345"/>
		</linearGradient>
		<path class="st1" d="M295.79,86.35l-9.09-13.13h-0.54h-9.49v13.13h-10.9V39.23h20.4c4.17,0,7.8,0.7,10.87,2.09
			c3.07,1.39,5.44,3.37,7.1,5.92c1.66,2.56,2.49,5.59,2.49,9.09c0,3.5-0.84,6.52-2.52,9.05c-1.68,2.54-4.07,4.48-7.17,5.82
			l10.57,15.14H295.79z M293.03,50.24c-1.71-1.41-4.2-2.12-7.47-2.12h-8.88v16.42h8.88c3.28,0,5.77-0.72,7.47-2.15
			c1.7-1.44,2.56-3.46,2.56-6.06C295.59,53.68,294.74,51.65,293.03,50.24z"/>
		<linearGradient id="SVGID_3_" gradientUnits="userSpaceOnUse" x1="158.5217" y1="63.8701" x2="489.6662" y2="61.7238">
			<stop  offset="5.376350e-03" style="stop-color:#8BC53F"/>
			<stop  offset="0.2437" style="stop-color:#56B241"/>
			<stop  offset="0.4837" style="stop-color:#28A143"/>
			<stop  offset="0.6685" style="stop-color:#0B9745"/>
			<stop  offset="0.7742" style="stop-color:#009345"/>
		</linearGradient>
		<path class="st2" d="M360.54,39.23l-20.4,47.12h-10.77l-20.33-47.12h11.78l14.34,33.66l14.54-33.66H360.54z"/>
		<linearGradient id="SVGID_4_" gradientUnits="userSpaceOnUse" x1="158.5202" y1="64.2466" x2="489.6697" y2="62.1002">
			<stop  offset="5.376350e-03" style="stop-color:#8BC53F"/>
			<stop  offset="0.2437" style="stop-color:#56B241"/>
			<stop  offset="0.4837" style="stop-color:#28A143"/>
			<stop  offset="0.6685" style="stop-color:#0B9745"/>
			<stop  offset="0.7742" style="stop-color:#009345"/>
		</linearGradient>
		<path class="st3" d="M400.93,77.6v8.75h-36.48V39.23h35.61v8.75h-24.77v10.23h21.88v8.48h-21.88v10.9H400.93z"/>
		<linearGradient id="SVGID_5_" gradientUnits="userSpaceOnUse" x1="158.531" y1="64.5269" x2="489.6681" y2="62.3806">
			<stop  offset="5.376350e-03" style="stop-color:#8BC53F"/>
			<stop  offset="0.2437" style="stop-color:#56B241"/>
			<stop  offset="0.4837" style="stop-color:#28A143"/>
			<stop  offset="0.6685" style="stop-color:#0B9745"/>
			<stop  offset="0.7742" style="stop-color:#009345"/>
		</linearGradient>
		<path class="st4" d="M414.29,85.65c-3.48-1.01-6.27-2.32-8.38-3.94l3.7-8.21c2.02,1.48,4.42,2.67,7.2,3.57
			c2.78,0.9,5.56,1.35,8.35,1.35c3.1,0,5.38-0.46,6.87-1.38c1.48-0.92,2.22-2.14,2.22-3.67c0-1.12-0.44-2.05-1.31-2.79
			c-0.87-0.74-2-1.33-3.37-1.78c-1.37-0.45-3.22-0.94-5.55-1.48c-3.59-0.85-6.53-1.71-8.82-2.56c-2.29-0.85-4.25-2.22-5.89-4.11
			c-1.64-1.88-2.46-4.4-2.46-7.54c0-2.74,0.74-5.22,2.22-7.44c1.48-2.22,3.71-3.98,6.7-5.28c2.98-1.3,6.63-1.95,10.94-1.95
			c3.01,0,5.95,0.36,8.82,1.08c2.87,0.72,5.39,1.75,7.54,3.1l-3.37,8.28c-4.35-2.47-8.71-3.7-13.06-3.7c-3.05,0-5.31,0.49-6.76,1.48
			c-1.46,0.99-2.19,2.29-2.19,3.9c0,1.62,0.84,2.82,2.52,3.6c1.68,0.79,4.25,1.56,7.71,2.32c3.59,0.85,6.53,1.71,8.82,2.56
			c2.29,0.85,4.25,2.2,5.89,4.04c1.64,1.84,2.46,4.33,2.46,7.47c0,2.69-0.75,5.15-2.25,7.37c-1.5,2.22-3.76,3.98-6.77,5.28
			c-3.01,1.3-6.66,1.95-10.97,1.95C421.37,87.16,417.77,86.66,414.29,85.65z"/>
		<linearGradient id="SVGID_6_" gradientUnits="userSpaceOnUse" x1="158.5292" y1="64.7448" x2="489.6708" y2="62.5985">
			<stop  offset="5.376350e-03" style="stop-color:#8BC53F"/>
			<stop  offset="0.2437" style="stop-color:#56B241"/>
			<stop  offset="0.4837" style="stop-color:#28A143"/>
			<stop  offset="0.6685" style="stop-color:#0B9745"/>
			<stop  offset="0.7742" style="stop-color:#009345"/>
		</linearGradient>
		<path class="st5" d="M461.64,48.12h-15.08v-8.89h41.06v8.89h-15.08v38.23h-10.9V48.12z"/>
		<path class="st6" d="M495.96,40.08h18.31c4.8,0,9.07,0.99,12.79,2.97c3.72,1.98,6.62,4.73,8.69,8.23
			c2.07,3.5,3.11,7.48,3.11,11.93c0,4.45-1.04,8.43-3.11,11.93c-2.07,3.5-4.97,6.25-8.69,8.23c-3.72,1.98-7.99,2.97-12.79,2.97
			h-18.31V40.08z M514.01,83.31c4.27,0,8.04-0.85,11.3-2.55c3.26-1.7,5.77-4.07,7.54-7.11c1.76-3.04,2.65-6.52,2.65-10.45
			c0-3.92-0.88-7.4-2.65-10.44c-1.76-3.04-4.28-5.41-7.54-7.11c-3.26-1.7-7.03-2.55-11.3-2.55h-14.68v40.19H514.01z"/>
		<path class="st6" d="M603.06,43.12H586.4v-3.04h36.69v3.04h-16.66v43.24h-3.37V43.12z"/>
		<polygon class="st6" points="584.48,86.35 588.12,86.35 566.83,40.08 563.46,40.08 542.17,86.35 545.81,86.35 550.93,75.01 
			550.93,75.01 550.94,74.98 551.69,73.33 551.7,73.33 554.28,67.68 565.11,43.78 576.16,68.03 576.16,68.03 576.19,68.09 
			577.28,70.49 577.26,70.49 579.47,75.38 579.47,75.38 		"/>
		<polygon class="st6" points="663.68,86.35 667.32,86.35 646.03,40.08 642.66,40.08 621.37,86.35 625.01,86.35 630.13,75.01 
			630.13,75.01 630.14,74.98 630.89,73.33 630.9,73.33 633.48,67.68 644.31,43.78 655.36,68.03 655.36,68.03 655.39,68.09 
			656.47,70.49 656.46,70.49 658.67,75.38 658.67,75.38 		"/>
		<linearGradient id="SVGID_7_" gradientUnits="userSpaceOnUse" x1="158.5197" y1="63.3538" x2="489.663" y2="61.2074">
			<stop  offset="5.376350e-03" style="stop-color:#8BC53F"/>
			<stop  offset="0.2437" style="stop-color:#56B241"/>
			<stop  offset="0.4837" style="stop-color:#28A143"/>
			<stop  offset="0.6685" style="stop-color:#0B9745"/>
			<stop  offset="0.7742" style="stop-color:#009345"/>
		</linearGradient>
		<polygon class="st7" points="239.79,39.23 229.02,39.23 208.02,86.35 219.19,86.35 222.31,78.82 222.31,78.82 222.31,78.82 
			223.37,76.26 223.38,76.26 229.08,62.64 229.08,62.64 234.34,49.94 241.81,67.98 241.81,67.98 245.24,76.26 245.24,76.26 
			249.42,86.35 260.86,86.35 		"/>
	</g>
	<linearGradient id="SVGID_8_" gradientUnits="userSpaceOnUse" x1="16.6237" y1="63.9889" x2="128.5054" y2="63.9889">
		<stop  offset="5.376350e-03" style="stop-color:#8BC53F"/>
		<stop  offset="0.2437" style="stop-color:#56B241"/>
		<stop  offset="0.4837" style="stop-color:#28A143"/>
		<stop  offset="0.6685" style="stop-color:#0B9745"/>
		<stop  offset="0.7742" style="stop-color:#009345"/>
	</linearGradient>
	<path class="st8" d="M84.53,87.16l-4.33-5.76l45.69-34.36C117.34,20.06,89.61,3.37,61.29,9.2c-30.26,6.23-49.74,35.81-43.5,66.07
		c0.13,0.65,0.29,1.29,0.45,1.93l44.74-33.65l4.33,5.76L20.54,84.5c9.77,24.86,36.27,39.85,63.32,34.28
		c29.6-6.1,48.86-34.53,43.86-64.09L84.53,87.16z"/>
</g>
</svg>
